<svg width="205" height="108" viewBox="0 0 205 108" fill="none" xmlns="http://www.w3.org/2000/svg">
<path d="M119.5 46.2058C125.5 49.6699 125.5 58.3301 119.5 61.7942L65.5 92.9711C59.5 96.4352 52 92.1051 52 85.1769L52 22.8231C52 15.8949 59.5 11.5648 65.5 15.0289L119.5 46.2058Z" fill="#FF7A00"/>
<g filter="url(#filter0_d_1_191)">
<path d="M94.5 46.2058C100.5 49.6699 100.5 58.3301 94.5 61.7942L40.5 92.9711C34.5 96.4352 27 92.1051 27 85.1769L27 22.8231C27 15.8949 34.5 11.5648 40.5 15.0289L94.5 46.2058Z" fill="#FF7A00"/>
</g>
<path d="M42.608 62.32C39.1733 62.32 36.3893 61.2533 34.256 59.12C32.144 56.9653 31.088 54.032 31.088 50.32C31.088 46.5653 32.144 43.632 34.256 41.52C36.368 39.3867 39.2907 38.32 43.024 38.32C44.56 38.32 45.9573 38.4267 47.216 38.64C47.728 38.7253 48.1547 38.9813 48.496 39.408C48.8373 39.8133 49.008 40.2827 49.008 40.816V40.944C49.008 41.392 48.8267 41.7547 48.464 42.032C48.1013 42.3093 47.696 42.3947 47.248 42.288C45.9893 42.0107 44.7413 41.872 43.504 41.872C40.9227 41.872 38.96 42.5867 37.616 44.016C36.2933 45.424 35.632 47.5253 35.632 50.32C35.632 53.0293 36.2827 55.12 37.584 56.592C38.9067 58.0427 40.688 58.768 42.928 58.768C43.8453 58.768 44.752 58.64 45.648 58.384C45.8187 58.3413 45.904 58.224 45.904 58.032V51.696C45.904 51.504 45.8187 51.408 45.648 51.408H41.648C41.1787 51.408 40.7733 51.248 40.432 50.928C40.112 50.5867 39.952 50.1813 39.952 49.712C39.952 49.2213 40.112 48.816 40.432 48.496C40.7733 48.1547 41.1787 47.984 41.648 47.984H48.368C48.8587 47.984 49.2853 48.1653 49.648 48.528C50.0107 48.8907 50.192 49.3173 50.192 49.808V59.12C50.192 59.6747 50.032 60.176 49.712 60.624C49.392 61.072 48.976 61.3707 48.464 61.52C46.6507 62.0533 44.6987 62.32 42.608 62.32ZM62.6105 54C59.5598 54 58.0345 54.9387 58.0345 56.816C58.0345 57.4987 58.2265 58.0533 58.6105 58.48C59.0158 58.9067 59.5278 59.12 60.1465 59.12C61.3625 59.12 62.3438 58.7467 63.0905 58C63.8372 57.232 64.2105 56.1867 64.2105 54.864V54.288C64.2105 54.096 64.1145 54 63.9225 54H62.6105ZM58.9945 62.32C57.5438 62.32 56.3385 61.8507 55.3785 60.912C54.4398 59.952 53.9705 58.7147 53.9705 57.2C53.9705 55.344 54.6745 53.904 56.0825 52.88C57.5118 51.856 59.6878 51.344 62.6105 51.344H63.9225C64.1145 51.344 64.2105 51.248 64.2105 51.056V50.8C64.2105 49.8187 63.9758 49.136 63.5065 48.752C63.0372 48.3467 62.2052 48.144 61.0105 48.144C59.7732 48.144 58.2585 48.368 56.4665 48.816C56.0825 48.9227 55.7305 48.8587 55.4105 48.624C55.0905 48.368 54.9305 48.0373 54.9305 47.632C54.9305 47.1413 55.0798 46.704 55.3785 46.32C55.6772 45.9147 56.0612 45.6693 56.5305 45.584C58.1518 45.2213 59.6772 45.04 61.1065 45.04C63.8372 45.04 65.7465 45.5307 66.8345 46.512C67.9225 47.4933 68.4665 49.2107 68.4665 51.664V60.176C68.4665 60.6667 68.2852 61.0933 67.9225 61.456C67.5812 61.8187 67.1652 62 66.6745 62H66.3225C65.8105 62 65.3732 61.8293 65.0105 61.488C64.6478 61.1253 64.4558 60.688 64.4345 60.176V59.728C64.4345 59.7067 64.4238 59.696 64.4025 59.696C64.3598 59.696 64.3385 59.7067 64.3385 59.728C63.0372 61.456 61.2558 62.32 58.9945 62.32ZM74.5 62C74.0093 62 73.5827 61.8187 73.22 61.456C72.8787 61.0933 72.708 60.6667 72.708 60.176V47.184C72.708 46.6933 72.8787 46.2667 73.22 45.904C73.5827 45.5413 74.0093 45.36 74.5 45.36H74.948C75.4387 45.36 75.8547 45.5307 76.196 45.872C76.5587 46.2133 76.7507 46.6293 76.772 47.12V47.344C76.772 47.3653 76.7827 47.376 76.804 47.376C76.8467 47.376 76.868 47.3653 76.868 47.344C78.1267 45.808 79.5453 45.04 81.124 45.04C82.084 45.04 82.852 45.2213 83.428 45.584C84.0253 45.9467 84.548 46.5867 84.996 47.504C84.996 47.5253 85.0173 47.536 85.06 47.536C85.0813 47.536 85.1027 47.5253 85.124 47.504C86.468 45.8613 87.9827 45.04 89.668 45.04C91.4387 45.04 92.708 45.52 93.476 46.48C94.2653 47.44 94.66 49.0933 94.66 51.44V60.176C94.66 60.6667 94.4787 61.0933 94.116 61.456C93.7747 61.8187 93.3587 62 92.868 62H92.324C91.8333 62 91.4067 61.8187 91.044 61.456C90.6813 61.0933 90.5 60.6667 90.5 60.176V52.08C90.5 50.5227 90.3507 49.4987 90.052 49.008C89.7533 48.5173 89.1773 48.272 88.324 48.272C87.7693 48.272 87.2147 48.528 86.66 49.04C86.1053 49.552 85.828 50.064 85.828 50.576V60.176C85.828 60.6667 85.6467 61.0933 85.284 61.456C84.9213 61.8187 84.4947 62 84.004 62H83.46C82.9693 62 82.5427 61.8187 82.18 61.456C81.8387 61.0933 81.668 60.6667 81.668 60.176V52.08C81.668 50.544 81.508 49.5307 81.188 49.04C80.8893 48.528 80.3133 48.272 79.46 48.272C78.9053 48.272 78.3507 48.528 77.796 49.04C77.2413 49.552 76.964 50.064 76.964 50.576V60.176C76.964 60.6667 76.7827 61.0933 76.42 61.456C76.0573 61.8187 75.6307 62 75.14 62H74.5ZM105.711 48.016C104.623 48.016 103.78 48.3253 103.183 48.944C102.607 49.5413 102.244 50.512 102.095 51.856C102.095 52.0267 102.18 52.112 102.351 52.112H108.623C108.793 52.112 108.879 52.0267 108.879 51.856C108.793 49.296 107.737 48.016 105.711 48.016ZM106.511 62.32C103.716 62.32 101.561 61.5947 100.047 60.144C98.5534 58.672 97.8068 56.5173 97.8068 53.68C97.8068 50.864 98.4788 48.72 99.8228 47.248C101.167 45.776 103.108 45.04 105.647 45.04C110.383 45.04 112.815 47.728 112.943 53.104C112.964 53.616 112.783 54.0427 112.399 54.384C112.015 54.7253 111.567 54.896 111.055 54.896H102.319C102.127 54.896 102.052 54.992 102.095 55.184C102.244 56.6133 102.713 57.6587 103.503 58.32C104.313 58.96 105.487 59.28 107.023 59.28C107.983 59.28 109.049 59.12 110.223 58.8C110.607 58.6933 110.959 58.7573 111.279 58.992C111.62 59.2267 111.791 59.5467 111.791 59.952C111.791 60.4427 111.641 60.88 111.343 61.264C111.065 61.6267 110.692 61.8507 110.223 61.936C109.028 62.192 107.791 62.32 106.511 62.32ZM127.377 54.416C126.908 54.416 126.503 54.256 126.161 53.936C125.82 53.5947 125.649 53.1893 125.649 52.72C125.649 52.2507 125.82 51.856 126.161 51.536C126.503 51.1947 126.908 51.024 127.377 51.024H134.609C135.079 51.024 135.484 51.1947 135.825 51.536C136.167 51.856 136.337 52.2507 136.337 52.72C136.337 53.1893 136.167 53.5947 135.825 53.936C135.484 54.256 135.079 54.416 134.609 54.416H127.377ZM143.071 62C142.58 62 142.153 61.8187 141.791 61.456C141.428 61.0933 141.247 60.6667 141.247 60.176V40.464C141.247 39.9733 141.428 39.5467 141.791 39.184C142.153 38.8213 142.58 38.64 143.071 38.64H143.871C144.425 38.64 144.937 38.7893 145.407 39.088C145.876 39.3867 146.217 39.7813 146.431 40.272L152.031 52.368C152.031 52.3893 152.041 52.4 152.063 52.4C152.084 52.4 152.095 52.3893 152.095 52.368L157.695 40.272C157.908 39.7813 158.249 39.3867 158.719 39.088C159.188 38.7893 159.7 38.64 160.255 38.64H161.183C161.673 38.64 162.1 38.8213 162.463 39.184C162.825 39.5467 163.007 39.9733 163.007 40.464V60.176C163.007 60.6667 162.825 61.0933 162.463 61.456C162.1 61.8187 161.673 62 161.183 62H160.479C159.988 62 159.561 61.8187 159.199 61.456C158.836 61.0933 158.655 60.6667 158.655 60.176V46.256C158.655 46.2347 158.644 46.224 158.623 46.224C158.601 46.224 158.591 46.2347 158.591 46.256L154.751 54.48C154.516 54.9707 154.153 55.376 153.663 55.696C153.193 55.9947 152.692 56.144 152.159 56.144H151.967C151.433 56.144 150.921 55.9947 150.431 55.696C149.961 55.376 149.609 54.9707 149.375 54.48L145.535 46.256C145.535 46.2347 145.524 46.224 145.503 46.224C145.481 46.224 145.471 46.2347 145.471 46.256V60.176C145.471 60.6667 145.289 61.0933 144.927 61.456C144.564 61.8187 144.137 62 143.647 62H143.071ZM169.883 62C169.393 62 168.966 61.8187 168.603 61.456C168.241 61.0933 168.059 60.6667 168.059 60.176V40.464C168.059 39.9733 168.241 39.5467 168.603 39.184C168.966 38.8213 169.393 38.64 169.883 38.64H180.763C181.254 38.64 181.681 38.8213 182.043 39.184C182.406 39.5467 182.587 39.9733 182.587 40.464C182.587 40.9547 182.406 41.3813 182.043 41.744C181.681 42.0853 181.254 42.256 180.763 42.256H172.827C172.635 42.256 172.539 42.352 172.539 42.544V47.696C172.539 47.888 172.635 47.984 172.827 47.984H180.219C180.71 47.984 181.115 48.1547 181.435 48.496C181.777 48.8373 181.947 49.2427 181.947 49.712C181.947 50.1813 181.777 50.5867 181.435 50.928C181.115 51.248 180.71 51.408 180.219 51.408H172.827C172.635 51.408 172.539 51.504 172.539 51.696V58.096C172.539 58.288 172.635 58.384 172.827 58.384H180.763C181.254 58.384 181.681 58.5653 182.043 58.928C182.406 59.2693 182.587 59.6853 182.587 60.176C182.587 60.6667 182.406 61.0933 182.043 61.456C181.681 61.8187 181.254 62 180.763 62H169.883ZM196.533 62.32C193.162 62.32 190.485 61.2853 188.501 59.216C186.538 57.1253 185.557 54.16 185.557 50.32C185.557 46.5227 186.506 43.5787 188.405 41.488C190.325 39.376 193.002 38.32 196.437 38.32C198.015 38.32 199.338 38.416 200.405 38.608C200.917 38.6933 201.343 38.9493 201.685 39.376C202.026 39.8027 202.197 40.2827 202.197 40.816V41.072C202.197 41.52 202.005 41.872 201.621 42.128C201.258 42.384 200.863 42.4587 200.437 42.352C199.391 42.0747 198.218 41.936 196.917 41.936C194.805 41.936 193.141 42.6613 191.925 44.112C190.73 45.5627 190.133 47.632 190.133 50.32C190.133 52.9867 190.751 55.056 191.989 56.528C193.247 57.9787 194.922 58.704 197.013 58.704C198.421 58.704 199.626 58.576 200.629 58.32C201.055 58.2133 201.45 58.288 201.813 58.544C202.197 58.8 202.389 59.152 202.389 59.6V59.824C202.389 60.3573 202.218 60.8373 201.877 61.264C201.557 61.6693 201.13 61.9147 200.597 62C199.381 62.2133 198.026 62.32 196.533 62.32Z" fill="white"/>
<defs>
<filter id="filter0_d_1_191" x="23" y="13.8096" width="80" height="88.3807" filterUnits="userSpaceOnUse" color-interpolation-filters="sRGB">
<feFlood flood-opacity="0" result="BackgroundImageFix"/>
<feColorMatrix in="SourceAlpha" type="matrix" values="0 0 0 0 0 0 0 0 0 0 0 0 0 0 0 0 0 0 127 0" result="hardAlpha"/>
<feOffset dy="4"/>
<feGaussianBlur stdDeviation="2"/>
<feComposite in2="hardAlpha" operator="out"/>
<feColorMatrix type="matrix" values="0 0 0 0 0 0 0 0 0 0 0 0 0 0 0 0 0 0 0.25 0"/>
<feBlend mode="normal" in2="BackgroundImageFix" result="effect1_dropShadow_1_191"/>
<feBlend mode="normal" in="SourceGraphic" in2="effect1_dropShadow_1_191" result="shape"/>
</filter>
</defs>
</svg>
